<svg width="82" height="112" viewBox="0 0 82 112" fill="none" xmlns="http://www.w3.org/2000/svg">
<path d="M62.784 68.728C63.3387 68.728 63.7653 68.984 64.064 69.496C64.4053 70.008 64.576 70.712 64.576 71.608C64.576 73.272 64.1707 74.5947 63.36 75.576C61.312 78.0507 59.2427 79.9707 57.152 81.336C55.0613 82.6587 52.5867 83.32 49.728 83.32C46.9547 83.32 44.5867 82.5733 42.624 81.08C40.704 79.5867 38.8693 77.0267 37.12 73.4C35.712 70.4987 34.6027 68.3653 33.792 67C32.9813 65.592 32.1707 64.5893 31.36 63.992C30.592 63.3947 29.632 63.032 28.48 62.904C28.3093 63.8 27.8187 66.616 27.008 71.352C26.6667 73.4853 26.4533 74.7867 26.368 75.256C25.9413 77.8587 25.088 79.864 23.808 81.272C22.528 82.6373 20.5867 83.32 17.984 83.32C15.1253 83.32 12.5867 82.488 10.368 80.824C8.192 79.1173 6.50667 76.7707 5.312 73.784C4.11733 70.7547 3.52 67.32 3.52 63.48C3.52 56.312 4.75733 50.1253 7.232 44.92C9.74933 39.7147 13.248 35.7467 17.728 33.016C22.2507 30.2427 27.456 28.856 33.344 28.856C37.44 28.856 40.8747 29.4747 43.648 30.712C46.4213 31.9493 48.4693 33.656 49.792 35.832C51.1573 38.008 51.84 40.4613 51.84 43.192C51.84 45.5813 51.264 47.928 50.112 50.232C49.0027 52.4933 47.3173 54.4987 45.056 56.248C42.7947 57.9973 40.0427 59.2987 36.8 60.152C38.848 60.7067 40.4267 61.6027 41.536 62.84C42.6453 64.0773 43.7547 65.8907 44.864 68.28C46.0587 70.84 47.232 72.7173 48.384 73.912C49.5787 75.1067 50.944 75.704 52.48 75.704C53.8453 75.704 55.1467 75.256 56.384 74.36C57.6213 73.4213 59.1787 71.8427 61.056 69.624C61.568 69.0267 62.144 68.728 62.784 68.728ZM19.648 62.84C18.1973 62.84 17.1947 62.4987 16.64 61.816C16.128 61.1333 15.872 60.3653 15.872 59.512C15.872 58.488 16.192 57.6773 16.832 57.08C17.5147 56.4827 18.2827 56.184 19.136 56.184H20.736C21.4187 52.0027 22.0587 48.3973 22.656 45.368C23.2107 42.5947 25.0027 41.208 28.032 41.208C30.464 41.208 31.68 42.296 31.68 44.472C31.68 44.9413 31.6587 45.304 31.616 45.56L29.696 56.184C32 56.056 34.0907 55.5013 35.968 54.52C37.888 53.5387 39.4027 52.1733 40.512 50.424C41.664 48.6747 42.24 46.6907 42.24 44.472C42.24 41.784 41.3227 39.672 39.488 38.136C37.6533 36.6 34.9653 35.832 31.424 35.832C27.2427 35.832 23.5733 36.8773 20.416 38.968C17.3013 41.016 14.8693 44.088 13.12 48.184C11.3707 52.2373 10.496 57.1867 10.496 63.032C10.496 65.7627 10.7733 68.1093 11.328 70.072C11.8827 72.0347 12.5653 73.5067 13.376 74.488C14.1867 75.4693 14.9547 75.96 15.68 75.96C16.2347 75.96 16.6827 75.6827 17.024 75.128C17.408 74.5733 17.7067 73.6773 17.92 72.44L19.648 62.84Z" fill="white"/>
<path d="M52.944 92.704L42.96 64.928C42.4907 63.648 42.0853 62.5813 41.744 61.728C41.4453 60.8747 41.168 60.1493 40.912 59.552C40.6987 58.9547 40.5067 58.464 40.336 58.08C40.1653 57.696 40.016 57.3333 39.888 56.992C39.4187 55.9253 38.928 55.1147 38.416 54.56C37.9467 53.9627 37.456 53.536 36.944 53.28C36.432 52.9813 35.8987 52.8107 35.344 52.768C34.832 52.7253 34.2987 52.704 33.744 52.704L33.424 52.448L33.296 50.016L33.36 49.76C33.6587 49.8027 34.0853 49.8453 34.64 49.888C35.2373 49.9307 35.856 49.9733 36.496 50.016C37.136 50.0587 37.7547 50.1013 38.352 50.144C38.9493 50.144 39.3973 50.144 39.696 50.144H44.432C44.7307 50.144 45.2213 50.1227 45.904 50.08C46.5867 50.0373 47.2907 49.9947 48.016 49.952C48.784 49.9093 49.5093 49.8667 50.192 49.824C50.8747 49.7813 51.3653 49.76 51.664 49.76L51.792 50.016L51.6 52.448L51.28 52.704C50.0427 52.704 49.0827 52.8533 48.4 53.152C47.7173 53.408 47.376 54.1547 47.376 55.392C47.376 56.3733 47.696 57.76 48.336 59.552C49.0187 61.3013 49.8507 63.52 50.832 66.208L54.736 76.704C55.4613 78.4107 56.0587 80.0533 56.528 81.632C56.9973 83.168 57.4667 84.448 57.936 85.472C58.2773 84.4907 58.7467 83.2533 59.344 81.76C59.9413 80.224 60.5813 78.5387 61.264 76.704L65.168 66.208C66.1493 63.52 66.96 61.3013 67.6 59.552C68.2827 57.76 68.624 56.3733 68.624 55.392C68.624 54.1547 68.2827 53.408 67.6 53.152C66.9173 52.8533 65.9573 52.704 64.72 52.704L64.4 52.448L64.272 50.016L64.4 49.76C64.6987 49.8027 65.168 49.8453 65.808 49.888C66.448 49.9307 67.1093 49.9733 67.792 50.016C68.4747 50.0587 69.136 50.1013 69.776 50.144C70.416 50.144 70.8853 50.144 71.184 50.144H74.96C75.2587 50.144 75.6853 50.1227 76.24 50.08C76.8373 50.0373 77.456 49.9947 78.096 49.952C78.736 49.9093 79.3547 49.8667 79.952 49.824C80.5493 49.7813 80.9973 49.76 81.296 49.76L81.424 50.016L81.232 52.448L80.912 52.704C80.3573 52.704 79.824 52.7253 79.312 52.768C78.8 52.8107 78.288 52.9813 77.776 53.28C77.3067 53.536 76.816 53.9627 76.304 54.56C75.8347 55.1147 75.344 55.9253 74.832 56.992C74.7467 57.2053 74.64 57.4187 74.512 57.632C74.4267 57.8453 74.2773 58.1867 74.064 58.656C73.8933 59.0827 73.6373 59.7013 73.296 60.512C72.9547 61.3227 72.5067 62.432 71.952 63.84C71.3973 65.2053 70.6933 66.9333 69.84 69.024C69.0293 71.1147 68.048 73.6533 66.896 76.64C66.2987 78.1333 65.68 79.6907 65.04 81.312C64.4 82.8907 63.8027 84.4053 63.248 85.856C62.6933 87.264 62.2027 88.5227 61.776 89.632C61.3493 90.7413 61.0507 91.5307 60.88 92L53.712 92.704H52.944Z" fill="#BF5454"/>
<path d="M63 76C61.8 77.6 60.8333 78.3333 60.5 78.5V78L64 69.5C64.8 70.3 64.6667 72.1667 64.5 73C64 74.5 64.5 74 63 76Z" fill="white"/>
<path d="M36.5123 54.4959C36.5082 54.4973 36.5041 54.4987 36.5 54.5L36.5123 54.4959C37.6618 54.1012 40.6014 49.8986 41 49.5C41.5 49 40.5 51 50.5 49.5C50.6667 50.1667 49 52.5 49 52.5L48.5 53.5C48.5 53.5 47 54.5 47.5 55C47.9 55.4 42.8333 57.8333 40.5 59C40 57.62 39.2 55.0879 38 54L36.5123 54.4959Z" fill="white"/>
</svg>
